<?xml version="1.0" encoding="UTF-8"?>
<svg width="334px" height="56px" viewBox="0 0 334 56" version="1.1" xmlns="http://www.w3.org/2000/svg" xmlns:xlink="http://www.w3.org/1999/xlink">
    <!-- Generator: Sketch 51.2 (57519) - http://www.bohemiancoding.com/sketch -->
    <title>technologies-image</title>
    <desc>Created with Sketch.</desc>
    <defs>
        <polygon id="path-1" points="0 0 49.9626154 0 49.9626154 55.9907945 0 55.9907945"></polygon>
        <linearGradient x1="50%" y1="0%" x2="50%" y2="100%" id="linearGradient-3">
            <stop stop-color="#F88A36" offset="0%"></stop>
            <stop stop-color="#FD2020" offset="100%"></stop>
        </linearGradient>
    </defs>
    <g id="Blockstart---Home" stroke="none" stroke-width="1" fill="none" fill-rule="evenodd">
        <g id="Blockstart-Home" transform="translate(-140.000000, -1788.000000)">
            <g id="Group-21" transform="translate(140.000000, 1788.000000)">
                <g id="technologies-image">
                    <g id="C-Sharp-01">
                        <g id="Group-4">
                            <mask id="mask-2" fill="white">
                                <use xlink:href="#path-1"></use>
                            </mask>
                            <g id="Clip-2"></g>
                            <path d="M49.9601538,16.464 C49.9596923,15.5224329 49.7578462,14.690411 49.3493846,13.9762192 C48.9483077,13.2739945 48.3475385,12.6854575 47.5418462,12.2201205 C40.8903077,8.39539726 34.2324615,4.58233425 27.5832308,0.753775342 C25.7906154,-0.278312329 24.0526154,-0.240723288 22.2732308,0.806246575 C19.6258462,2.3632 6.37092308,9.93654795 2.42107692,12.2179726 C0.794461538,13.1570849 0.00292307692,14.5942137 0.00261538462,16.4623123 C0,24.1539507 0.00261538462,31.845589 0,39.5375342 C0.000461538462,40.4585425 0.193692308,41.2744548 0.584153846,41.9777534 C0.985384615,42.7011507 1.59461538,43.3059507 2.41892308,43.781874 C6.36892308,46.0632986 19.6255385,53.6360329 22.2724615,55.1934466 C24.0526154,56.2408767 25.7906154,56.2783123 27.5838462,55.2459178 C34.2332308,51.4170521 40.8915385,47.6041425 47.544,43.7795726 C48.3683077,43.3038027 48.9773846,42.6986959 49.3787692,41.9757589 C49.7686154,41.2724603 49.9623077,40.4565479 49.9626154,39.5353863 C49.9626154,39.5353863 49.9626154,24.1559452 49.9601538,16.464" id="Fill-1" fill="#8D4482" mask="url(#mask-2)"></path>
                            <path d="M25.0576923,27.9249753 L0.584153846,41.9777534 C0.985384615,42.7011507 1.59461538,43.3059507 2.41892308,43.781874 C6.36892308,46.0632986 19.6255385,53.6360329 22.2724615,55.1934466 C24.0526154,56.2408767 25.7906154,56.2783123 27.5838462,55.2459178 C34.2332308,51.4170521 40.8915385,47.6041425 47.544,43.7795726 C48.3683077,43.3038027 48.9773846,42.6986959 49.3787692,41.9757589 L25.0576923,27.9249753" id="Fill-3" fill="#5B2863" mask="url(#mask-2)"></path>
                        </g>
                        <path d="M17.8089231,32.0875397 C19.2330769,34.5668822 21.9103077,36.239211 24.9813846,36.239211 C28.0713846,36.239211 30.7638462,34.5457096 32.1806154,32.0398247 L25.0576923,27.9249753 L17.8089231,32.0875397" id="Fill-5" fill="#5B2863"></path>
                        <path d="M49.9601538,16.464 C49.9596923,15.5224329 49.7578462,14.690411 49.3493846,13.9762192 L25.0576923,27.9249753 L49.3787692,41.9757589 C49.7686154,41.2724603 49.9623077,40.4565479 49.9626154,39.5353863 C49.9626154,39.5353863 49.9626154,24.1559452 49.9601538,16.464" id="Fill-6" fill="#732E71"></path>
                        <path d="M32.1806154,32.0398247 C30.7638462,34.5457096 28.0713846,36.239211 24.9813846,36.239211 C21.9103077,36.239211 19.2330769,34.5668822 17.8089231,32.0875397 C17.1170769,30.8826959 16.7193846,29.4879123 16.7193846,27.9998466 C16.7193846,23.4494247 20.4184615,19.7606356 24.9813846,19.7606356 C28.0326154,19.7606356 30.6958462,21.4120986 32.1269231,23.866126 L39.3483077,19.7190575 C36.478,14.777863 31.1192308,11.453611 24.9813846,11.453611 C15.8176923,11.453611 8.38953846,18.8617205 8.38953846,27.9998466 C8.38953846,30.9977644 9.18923077,33.8091178 10.5869231,36.2341479 C13.45,41.2014247 18.8241538,44.5462356 24.9813846,44.5462356 C31.1498462,44.5462356 36.5324615,41.1880767 39.3913846,36.2060712 L32.1806154,32.0398247" id="Fill-7" fill="#FFFFFE"></path>
                        <polygon id="Fill-8" fill="#FFFFFE" points="39.6646154 32.0145096 41.3056923 32.0145096 41.3056923 24.0876712 39.6646154 24.0876712"></polygon>
                        <polygon id="Fill-9" fill="#FFFFFE" points="43.3056923 32.0145096 44.9466154 32.0145096 44.9466154 24.0876712 43.3056923 24.0876712"></polygon>
                        <polygon id="Fill-10" fill="#FFFFFE" points="38.3312308 27.0538301 46.28 27.0538301 46.28 25.4172493 38.3312308 25.4172493"></polygon>
                        <polygon id="Fill-11" fill="#FFFFFE" points="38.3312308 30.6849315 46.28 30.6849315 46.28 29.0483507 38.3312308 29.0483507"></polygon>
                    </g>
                    <g id="Swift_logo" transform="translate(138.000000, 1.000000)" fill="url(#linearGradient-3)" fill-rule="nonzero">
                        <path d="M44.8275,49.5705 C37.827,53.6145 28.2015,54.03 18.5175,49.8795 C10.67655,46.5435 4.1706,40.704 1.77635684e-15,34.032 C2.0019,35.7 4.3374,37.035 6.8397,38.202 C16.8405,42.8895 26.8392,42.5685 33.8757,38.214 C33.8712,38.2095 33.8682,38.2065 33.8652,38.202 C23.8557,30.528 15.3477,20.5185 9.0087,12.345 C7.67355,11.0103 6.6726,9.342 5.67165,7.84065 C13.3455,14.84715 25.52415,23.68815 29.86065,26.19165 C20.68665,16.51515 12.51165,4.50465 12.84465,4.83765 C27.35865,19.51815 40.87215,27.85965 40.87215,27.85965 C41.31915,28.11165 41.66415,28.32165 41.94165,28.50915 C42.23415,27.76515 42.49065,26.99265 42.70665,26.19165 C45.04215,17.68365 42.37365,8.00715 36.53415,0.00015 C50.04615,8.1744 58.05465,23.52165 54.71715,36.36765 C54.63015,36.71415 54.53565,37.05615 54.43365,37.39215 C54.47265,37.43865 54.51165,37.48665 54.55065,37.53615 C61.22265,45.87765 59.38815,54.71865 58.55415,53.05065 C54.93465,45.96765 48.23415,48.13365 44.82765,49.57065 L44.8275,49.5705 Z" id="Shape"></path>
                    </g>
                    <g id="icons8-android_os" transform="translate(216.000000, 1.000000)" fill="#7CB342" fill-rule="nonzero">
                        <path d="M6,35.3243243 C6,36.9891892 4.65,38.3513514 3,38.3513514 C1.35,38.3513514 0,36.9891892 0,35.3243243 L0,21.7027027 C0,20.0378378 1.35,18.6756757 3,18.6756757 C4.65,18.6756757 6,20.0378378 6,21.7027027 L6,35.3243243 Z" id="Shape"></path>
                        <path d="M48,35.3243243 C48,36.9891892 46.65,38.3513514 45,38.3513514 C43.35,38.3513514 42,36.9891892 42,35.3243243 L42,21.7027027 C42,20.0378378 43.35,18.6756757 45,18.6756757 C46.65,18.6756757 48,20.0378378 48,21.7027027 L48,35.3243243 Z" id="Shape"></path>
                        <path d="M21,51.972973 C21,53.6378378 19.65,55 18,55 C16.35,55 15,53.6378378 15,51.972973 L15,38.3513514 C15,36.6864865 16.35,35.3243243 18,35.3243243 C19.65,35.3243243 21,36.6864865 21,38.3513514 L21,51.972973 Z" id="Shape"></path>
                        <path d="M33,51.972973 C33,53.6378378 31.65,55 30,55 C28.35,55 27,53.6378378 27,51.972973 L27,38.3513514 C27,36.6864865 28.35,35.3243243 30,35.3243243 C31.65,35.3243243 33,36.6864865 33,38.3513514 L33,51.972973 Z" id="Shape"></path>
                        <path d="M9,18.6756757 L9,41.3783784 C9,43.0432432 10.35,44.4054054 12,44.4054054 L36,44.4054054 C37.65,44.4054054 39,43.0432432 39,41.3783784 L39,18.6756757 L9,18.6756757 Z" id="Shape"></path>
                        <path d="M24,3.54054054 C15,3.54054054 9.45,8.98918919 9,15.6486486 L39,15.6486486 C38.55,8.98918919 33,3.54054054 24,3.54054054 Z M18,12.0162162 C17.1,12.0162162 16.5,11.4108108 16.5,10.5027027 C16.5,9.59459459 17.1,8.98918919 18,8.98918919 C18.9,8.98918919 19.5,9.59459459 19.5,10.5027027 C19.5,11.2594595 18.9,12.0162162 18,12.0162162 Z M30,12.0162162 C29.1,12.0162162 28.5,11.4108108 28.5,10.5027027 C28.5,9.59459459 29.1,8.98918919 30,8.98918919 C30.9,8.98918919 31.5,9.59459459 31.5,10.5027027 C31.5,11.2594595 30.9,12.0162162 30,12.0162162 Z" id="Shape"></path>
                        <path d="M30.45,7.32432432 C30.15,7.32432432 29.85,7.17297297 29.55,7.02162162 C28.8,6.56756757 28.65,5.65945946 29.1,4.9027027 L31.65,1.11891892 C32.1,0.362162162 33,0.210810811 33.75,0.664864865 C34.5,1.11891892 34.65,2.02702703 34.2,2.78378378 L31.65,6.56756757 C31.5,7.02162162 31.05,7.32432432 30.45,7.32432432 Z" id="Shape"></path>
                        <path d="M16.95,6.71891892 C16.5,6.71891892 15.9,6.41621622 15.75,5.96216216 L13.8,2.78378378 C13.35,2.02702703 13.5,1.11891892 14.25,0.664864865 C15,0.210810811 15.9,0.362162162 16.35,1.11891892 L18.3,4.2972973 C18.75,5.05405405 18.6,5.96216216 17.85,6.41621622 C17.55,6.56756757 17.25,6.71891892 16.95,6.71891892 Z" id="Shape"></path>
                    </g>
                    <g id="icons8-unity_filled" transform="translate(282.000000, 2.000000)" fill="#191626" fill-rule="nonzero">
                        <path d="M48.5513638,26.2452316 L51.8844135,20.5994032 C52.0182891,20.3178034 52.0367548,19.9946575 51.9351943,19.7038255 L45.3337254,0.795144695 C45.1306033,0.218097847 44.5258531,-0.109665226 43.9395697,0.0334427614 L24.5367921,4.76061296 C24.1674792,4.8529405 23.8627954,5.1160737 23.7196876,5.47153445 L21.6561514,10.6372608 L15.3639823,10.6372608 C15.0362168,10.6372608 14.7176847,10.7757527 14.4960969,11.0158043 L0.314480967,26.3791074 C-0.124078416,26.8545934 -0.100995473,27.5932137 0.365261788,28.0363859 L15.2393389,42.2178965 C15.4563105,42.4302505 15.7517608,42.5456596 16.0518273,42.5456596 L22.8333366,42.5456596 L24.9014889,47.7113859 C25.0538302,48.0945455 25.395444,48.3669109 25.7970721,48.4361568 L46.4324319,51.9815345 C46.497061,51.9953839 46.5663075,52 46.6309367,52 C47.1802899,52 47.6650128,51.6214577 47.7850401,51.0721085 L51.9721256,31.8910612 C52.0367548,31.595613 51.985974,31.2863154 51.8244004,31.0231822 L48.5513638,26.2452316 Z M21.6561514,10.6372608 L38.3121639,7.58583577 L29.5455982,24.8187714 L9.65348161,24.8187714 L21.6561514,10.6372608 Z M22.8379527,42.5456596 L9.65348161,29.5459416 L29.5455982,29.5459416 L39.8863599,45.1077492 L22.8379527,42.5456596 Z M44.1842392,42.4256344 L34.2728035,27.1823565 L42.9378075,9.94942087 L48.5513638,26.2498489 L44.1842392,42.4256344 Z" id="Shape"></path>
                    </g>
                    <g id="typescript-seeklogo.com-5" transform="translate(68.000000, 3.000000)" fill-rule="nonzero">
                        <polygon id="Shape" fill="#007ACC" transform="translate(25.500000, 25.500000) scale(-1, 1) rotate(-180.000000) translate(-25.500000, -25.500000) " points="0 25.5 0 0 25.5 0 51 0 51 25.5 51 51 25.5 51 0 51"></polygon>
                        <path d="M29.21705,44.5128124 L29.2332403,42.4242411 L25.9141928,42.4242411 L22.5951453,42.4242411 L22.5951453,32.9932886 L22.5951453,23.5623363 L20.2475262,23.5623363 L17.8999071,23.5623363 L17.8999071,32.9932886 L17.8999071,42.4242411 L14.5808595,42.4242411 L11.2618118,42.4242411 L11.2618118,44.4723363 C11.2618118,45.6056695 11.2860976,46.5528124 11.3184785,46.5770981 C11.3427642,46.6094792 15.382288,46.6256695 20.279907,46.6175744 L29.1927643,46.5932887 L29.21705,44.5128124 Z" id="Shape" fill="#FFFFFF" transform="translate(20.247526, 35.090987) rotate(-180.000000) translate(-20.247526, -35.090987) "></path>
                        <path d="M41.151946,46.6714037 C42.4471843,46.3475941 43.4348032,45.7728321 44.3414699,44.8337846 C44.8109938,44.3318799 45.5071843,43.417118 45.5638508,43.1985465 C45.5800413,43.1337845 43.3619462,41.6442608 42.0181366,40.8104512 C41.9695651,40.7780702 41.7752794,40.9885464 41.5567079,41.3123559 C40.9009937,42.2675941 40.2128986,42.6804513 39.1605175,42.7533084 C37.614327,42.8585465 36.6186128,42.0490227 36.6267081,40.6971178 C36.6267081,40.3004512 36.6833746,40.0656892 36.8452795,39.7418799 C37.1852794,39.037594 37.816708,38.6166418 39.8000414,37.7585465 C43.4509937,36.1880702 45.0133748,35.1518799 45.9848032,33.6785465 C47.0695651,32.0352131 47.3124223,29.412356 46.5757556,27.4614036 C45.7662318,25.3404513 43.7586128,23.8994989 40.9333748,23.4218799 C40.0590889,23.2680703 37.9867079,23.292356 37.0476605,23.4623559 C34.9995652,23.8266418 33.0567081,24.8385465 31.8586129,26.1661656 C31.3890889,26.6842608 30.474327,28.0361654 30.5309938,28.1333083 C30.5552794,28.1656893 30.7657556,28.2952132 31.0005175,28.4328321 C31.2271843,28.5623559 32.0852794,29.0561654 32.8948032,29.5256894 L34.3600413,30.3756892 L34.6676604,29.922356 C35.0967081,29.2666416 36.0357557,28.3680703 36.6024223,28.0685465 C38.2295651,27.2104511 40.4638508,27.3318797 41.5648032,28.3194989 C42.0343271,28.7485464 42.2286128,29.1937846 42.2286128,29.8494989 C42.2286128,30.4404513 42.1557557,30.6994988 41.8481367,31.144737 C41.4514698,31.7114035 40.641946,32.1890227 38.3428985,33.184737 C35.7119462,34.3180703 34.5786128,35.022356 33.5424223,36.1394989 C32.9433747,36.787118 32.3767079,37.8233083 32.1419462,38.6894989 C31.9476605,39.4099751 31.8990889,41.2152131 32.0528986,41.9437846 C32.5952794,44.4856893 34.5138508,46.2585465 37.2824222,46.784737 C38.1809938,46.954737 40.2695651,46.8899749 41.151946,46.6714037 Z" id="Shape" fill="#FFFFFF" transform="translate(38.763687, 35.100399) scale(-1, 1) rotate(-180.000000) translate(-38.763687, -35.100399) "></path>
                    </g>
                </g>
            </g>
        </g>
    </g>
</svg>