<?xml version="1.0" encoding="UTF-8"?>
<svg width="168px" height="36px" viewBox="0 0 168 36" version="1.1" xmlns="http://www.w3.org/2000/svg" xmlns:xlink="http://www.w3.org/1999/xlink">
    <!-- Generator: Sketch 50 (54983) - http://www.bohemiancoding.com/sketch -->
    <title>tech-icons</title>
    <desc>Created with Sketch.</desc>
    <defs></defs>
    <g id="Website" stroke="none" stroke-width="1" fill="none" fill-rule="evenodd">
        <g id="Blockstart-Landing-Page-v2" transform="translate(-240.000000, -514.000000)">
            <g id="tech-icons" transform="translate(240.000000, 514.000000)">
                <g id="icons8-unity_filled" transform="translate(65.600000, 0.000000)" fill="#142236" fill-rule="nonzero">
                    <path d="M32.8656248,18.5656248 L35.1218752,14.7437504 C35.2125,14.5531248 35.225,14.3343752 35.1562504,14.1375 L30.6875,1.3375 C30.55,0.9468752 30.1406248,0.725 29.7437504,0.8218752 L16.6093752,4.0218752 C16.3593752,4.0843752 16.1531248,4.2625 16.0562504,4.5031248 L14.6593752,8 L10.4,8 C10.1781248,8 9.9625,8.0937504 9.8125,8.2562504 L0.2125,18.6562504 C-0.0843752,18.9781248 -0.0687496,19.4781248 0.2468752,19.7781248 L10.3156248,29.3781248 C10.4625,29.5218752 10.6625,29.6 10.8656248,29.6 L15.4562504,29.6 L16.8562504,33.0968752 C16.9593752,33.3562504 17.1906248,33.5406248 17.4625,33.5875 L31.4312504,35.9875 C31.475,35.9968752 31.5218752,36 31.5656248,36 C31.9375,36 32.2656248,35.7437504 32.3468752,35.3718752 L35.1812504,22.3875 C35.225,22.1875 35.1906248,21.9781248 35.0812504,21.8 L32.8656248,18.5656248 Z M14.6593752,8 L25.9343752,5.9343752 L20,17.6 L6.5343752,17.6 L14.6593752,8 Z M15.4593752,29.6 L6.5343752,20.8 L20,20.8 L27,31.3343752 L15.4593752,29.6 Z M29.9093752,29.5187504 L23.2,19.2 L29.0656248,7.5343752 L32.8656248,18.5687504 L29.9093752,29.5187504 Z" id="Shape"></path>
                </g>
                <g id="icons8-android_os" transform="translate(137.600000, 1.600000)">
                    <path d="M3.8,21.12096 C3.8,22.1808 2.9488,23.04096 1.9,23.04096 C0.8512,23.04096 0,22.1808 0,21.12096 L0,12.48096 C0,11.42112 0.8512,10.56096 1.9,10.56096 C2.9488,10.56096 3.8,11.42112 3.8,12.48096 L3.8,21.12096 Z" id="Shape" fill="#142236" fill-rule="nonzero"></path>
                    <path d="M30.4,21.12096 C30.4,22.1808 29.5488,23.04096 28.5,23.04096 C27.4512,23.04096 26.6,22.1808 26.6,21.12096 L26.6,12.48096 C26.6,11.42112 27.4512,10.56096 28.5,10.56096 C29.5488,10.56096 30.4,11.42112 30.4,12.48096 L30.4,21.12096 Z" id="Shape" fill="#142236" fill-rule="nonzero"></path>
                    <path d="M13.3,31.68 C13.3,32.73984 12.4488,33.6 11.4,33.6 C10.3512,33.6 9.5,32.73984 9.5,31.68 L9.5,23.04 C9.5,21.98016 10.3512,21.12 11.4,21.12 C12.4488,21.12 13.3,21.98016 13.3,23.04 L13.3,31.68 Z" id="Shape" fill="#142236" fill-rule="nonzero"></path>
                    <path d="M20.9,31.68 C20.9,32.73984 20.0488,33.6 19,33.6 C17.9512,33.6 17.1,32.73984 17.1,31.68 L17.1,23.04 C17.1,21.98016 17.9512,21.12 19,21.12 C20.0488,21.12 20.9,21.98016 20.9,23.04 L20.9,31.68 Z" id="Shape" fill="#142236" fill-rule="nonzero"></path>
                    <path d="M5.7,10.56096 L5.7,24.96 C5.7,26.01984 6.5512,26.88 7.6,26.88 L22.8,26.88 C23.8488,26.88 24.7,26.01984 24.7,24.96 L24.7,10.56096 L5.7,10.56096 Z" id="Shape" fill="#142236" fill-rule="nonzero"></path>
                    <path d="M15.2,0.96 C9.5,0.96 6.02775,4.4592 5.7,8.64 L24.7,8.64 C24.3713,4.4592 20.9,0.96 15.2,0.96 Z M11.4,6.33408 C10.8756,6.33408 10.45,5.904 10.45,5.37408 C10.45,4.84416 10.8756,4.41408 11.4,4.41408 C11.9244,4.41408 12.35,4.84416 12.35,5.37408 C12.35,5.904 11.9244,6.33408 11.4,6.33408 Z M19,6.33408 C18.47465,6.33408 18.05,5.904 18.05,5.37408 C18.05,4.84416 18.47465,4.41408 19,4.41408 C19.52535,4.41408 19.95,4.84416 19.95,5.37408 C19.95,5.904 19.52535,6.33408 19,6.33408 Z" id="Shape" fill="#142236" fill-rule="nonzero"></path>
                    <path d="M20.9,0 L19.3173,2.39904" id="Shape" stroke="#142236" stroke-width="1.92" stroke-linecap="round"></path>
                    <path d="M9.5,0 L10.76635,1.99872" id="Shape" stroke="#142236" stroke-width="1.92" stroke-linecap="round"></path>
                </g>
                <g id="icons8-mac_os" transform="translate(0.000000, 0.800000)" fill="#303137" fill-rule="nonzero">
                    <path d="M29.5106537,25.0661064 C28.7065348,26.8181487 28.322869,27.6037256 27.2875,29.1490385 C25.8474439,31.3145436 23.8082393,34.0123795 21.285512,34.0278846 C19.0465909,34.0485577 18.4684666,32.5911064 15.4254265,32.6169474 C12.3823864,32.6272833 11.7464492,34.0537256 9.50227273,34.0330526 C6.9848008,34.0123795 5.05596658,31.5781257 3.61065375,29.4229564 C-0.430965236,23.3709141 -0.856676473,16.2748795 1.63977273,12.5020436 C3.40568182,9.82487948 6.20170455,8.25372563 8.82954545,8.25372563 C11.4994318,8.25372563 13.18125,9.69567308 15.3938917,9.69567308 C17.5382099,9.69567308 18.841619,8.24855769 21.9372166,8.24855769 C24.2707393,8.24855769 26.7461644,9.49927951 28.5120735,11.6647833 C22.7308235,14.7760821 23.6715909,22.8954334 29.5106537,25.0661064 Z M19.5879265,5.82980769 C20.7126417,4.41370258 21.5640628,2.40841412 21.2592326,0.366947446 C19.4197447,0.490985908 17.2754265,1.64351028 16.0193182,3.13197182 C14.8840909,4.49122563 13.9433235,6.51201923 14.3112219,8.46562566 C16.3136364,8.52764489 18.3843757,7.35444745 19.5879265,5.82980769 Z" id="Shape"></path>
                </g>
            </g>
        </g>
    </g>
</svg>